<svg xmlns="http://www.w3.org/2000/svg" version="1.1" xmlns:xlink="http://www.w3.org/1999/xlink" xmlns:svgjs="http://svgjs.com/svgjs" width="1440" height="560" preserveAspectRatio="none" viewBox="0 0 1440 560"><g mask="url(&quot;#SvgjsMask1360&quot;)" fill="none"><rect width="1440" height="560" x="0" y="0" fill="rgba(70, 182, 184, 0.67)"></rect><path d="M1464 560L0 560 L0 475.66Q46.6 402.26, 120 448.87Q198.73 407.6, 240 486.32Q265.92 440.24, 312 466.15Q342.82 424.97, 384 455.79Q434.38 434.18, 456 484.56Q509.87 418.43, 576 472.29Q625.26 401.56, 696 450.82Q749.13 431.94, 768 485.07Q817.23 414.29, 888 463.52Q953.3 408.81, 1008 474.11Q1057.29 403.4, 1128 452.69Q1181.04 433.73, 1200 486.76Q1248.07 414.82, 1320 462.89Q1350.32 421.2, 1392 451.52Q1438.9 426.42, 1464 473.32z" fill="rgba(70, 182, 184, 1)"></path><path d="M1512 560L0 560 L0 482.22Q46.63 456.86, 72 503.49Q102.51 462, 144 492.52Q198.54 427.06, 264 481.6Q339.32 436.92, 384 512.24Q434.25 442.49, 504 492.73Q557.21 425.94, 624 479.15Q675.23 458.38, 696 509.6Q747.66 441.26, 816 492.93Q846.73 451.65, 888 482.38Q960.91 435.29, 1008 508.21Q1062.28 442.49, 1128 496.77Q1153.63 450.4, 1200 476.04Q1253.63 457.67, 1272 511.3Q1325.93 445.24, 1392 499.17Q1445.54 432.71, 1512 486.24z" fill="rgba(27, 209, 142, 1)"></path><path d="M1488 560L0 560 L0 535.27Q32.48 495.75, 72 528.23Q125.47 461.7, 192 515.17Q241.99 493.16, 264 543.15Q317.51 476.66, 384 530.17Q438.61 464.77, 504 519.38Q533.49 476.87, 576 506.35Q647.76 458.12, 696 529.88Q749.73 463.61, 816 517.34Q870.99 452.33, 936 507.31Q1013.77 465.08, 1056 542.84Q1080.89 495.74, 1128 520.63Q1180.57 453.19, 1248 505.76Q1322.49 460.25, 1368 534.75Q1422.51 469.26, 1488 523.78z" fill="rgba(70, 182, 184, 0.54)"></path><path d="M1536 560L0 560 L0 543.39Q40.49 511.88, 72 552.38Q140.32 500.7, 192 569.03Q237.05 494.08, 312 539.13Q380.17 487.3, 432 555.46Q498.87 502.33, 552 569.2Q575.47 520.67, 624 544.14Q690.38 490.52, 744 556.91Q792.35 485.25, 864 533.6Q929.83 479.43, 984 545.26Q1029.64 518.9, 1056 564.54Q1100.69 489.23, 1176 533.92Q1243.62 481.54, 1296 549.16Q1366.43 499.6, 1416 570.03Q1459.37 493.4, 1536 536.77z" fill="rgba(255, 255, 255, 1)"></path></g><defs><mask id="SvgjsMask1360"><rect width="1440" height="560" fill="#ffffff"></rect></mask></defs></svg>